<svg width="48" height="39" viewBox="0 0 48 39" fill="none" xmlns="http://www.w3.org/2000/svg">
<path d="M47.3386 38.6699L47.3389 17.3348L34.0044 26.6689L47.3386 38.6699Z" fill="#D9D9D9"/>
<rect width="47.34" height="26.669" rx="2" transform="matrix(-1 0 0 1 47.3389 -6.10352e-05)" fill="#D9D9D9"/>
<path d="M20.0712 13.3344V21.3351H7.27006V13.3344M13.6706 21.3351V9.33402M13.6706 9.33402H10.0703C9.53982 9.33402 9.03107 9.12329 8.65597 8.74819C8.28086 8.37308 8.07013 7.86433 8.07013 7.33385C8.07013 6.80337 8.28086 6.29462 8.65597 5.91952C9.03107 5.54441 9.53982 5.33368 10.0703 5.33368C12.8705 5.33368 13.6706 9.33402 13.6706 9.33402ZM13.6706 9.33402H17.2709C17.8014 9.33402 18.3102 9.12329 18.6853 8.74819C19.0604 8.37308 19.2711 7.86433 19.2711 7.33385C19.2711 6.80337 19.0604 6.29462 18.6853 5.91952C18.3102 5.54441 17.8014 5.33368 17.2709 5.33368C14.4707 5.33368 13.6706 9.33402 13.6706 9.33402ZM5.66992 9.33402H21.6713V13.3344H5.66992V9.33402Z" stroke="white" stroke-width="2" stroke-linecap="round" stroke-linejoin="round"/>
<path d="M37.9167 5.82501C39.1981 5.82501 39.8387 5.82501 40.299 6.13253C40.4982 6.26566 40.6693 6.43673 40.8024 6.63597C41.1099 7.09621 41.1099 7.7369 41.1099 9.01827V17.6857C41.1099 19.406 41.1099 20.2662 40.5755 20.8007C40.041 21.3351 39.1809 21.3351 37.4605 21.3351H31.9864C30.266 21.3351 29.4058 21.3351 28.8714 20.8007C28.3369 20.2662 28.3369 19.406 28.3369 17.6857V9.01827C28.3369 7.7369 28.3369 7.09621 28.6444 6.63597C28.7776 6.43673 28.9486 6.26566 29.1479 6.13253C29.6081 5.82501 30.2488 5.82501 31.5302 5.82501" stroke="white" stroke-width="2"/>
<path d="M31.9863 5.82502C31.9863 4.81726 32.8033 4.00031 33.811 4.00031H35.6358C36.6435 4.00031 37.4605 4.81726 37.4605 5.82502C37.4605 6.83279 36.6435 7.64974 35.6358 7.64974H33.811C32.8033 7.64974 31.9863 6.83279 31.9863 5.82502Z" stroke="white" stroke-width="2"/>
<path d="M31.9863 12.2116L37.4605 12.2116" stroke="white" stroke-width="2" stroke-linecap="round"/>
<path d="M31.9863 15.861L35.6358 15.861" stroke="white" stroke-width="2" stroke-linecap="round"/>
</svg>
