<svg width="28" height="39" viewBox="0 0 28 39" fill="none" xmlns="http://www.w3.org/2000/svg">
<rect width="28" height="26.6667" rx="2" transform="matrix(-1 0 0 1 28 0.333252)" fill="#D9D9D9"/>
<path d="M20.4 13.6665V21.6665H7.6V13.6665M14 21.6665V9.6665M14 9.6665H10.4C9.86957 9.6665 9.36086 9.45579 8.98579 9.08072C8.61071 8.70564 8.4 8.19694 8.4 7.6665C8.4 7.13607 8.61071 6.62736 8.98579 6.25229C9.36086 5.87722 9.86957 5.6665 10.4 5.6665C13.2 5.6665 14 9.6665 14 9.6665ZM14 9.6665H17.6C18.1304 9.6665 18.6391 9.45579 19.0142 9.08072C19.3893 8.70564 19.6 8.19694 19.6 7.6665C19.6 7.13607 19.3893 6.62736 19.0142 6.25229C18.6391 5.87722 18.1304 5.6665 17.6 5.6665C14.8 5.6665 14 9.6665 14 9.6665ZM6 9.6665H22V13.6665H6V9.6665Z" stroke="white" stroke-width="2" stroke-linecap="round" stroke-linejoin="round"/>
<path d="M27.9996 38.9999L27.9998 17.6666L14.6665 26.9999L27.9996 38.9999Z" fill="#D9D9D9"/>
</svg>
