<svg width="28" height="39" viewBox="0 0 28 39" fill="none" xmlns="http://www.w3.org/2000/svg">
<rect width="28" height="27" rx="2" transform="matrix(-1 0 0 1 28 -6.10352e-05)" fill="#D9D9D9"/>
<path d="M20.4 13.6664V21.6664H7.6V13.6664M14 21.6664V9.66644M14 9.66644H10.4C9.86957 9.66644 9.36086 9.45573 8.98579 9.08066C8.61071 8.70558 8.4 8.19688 8.4 7.66644C8.4 7.13601 8.61071 6.6273 8.98579 6.25223C9.36086 5.87716 9.86957 5.66644 10.4 5.66644C13.2 5.66644 14 9.66644 14 9.66644ZM14 9.66644H17.6C18.1304 9.66644 18.6391 9.45573 19.0142 9.08066C19.3893 8.70558 19.6 8.19688 19.6 7.66644C19.6 7.13601 19.3893 6.6273 19.0142 6.25223C18.6391 5.87716 18.1304 5.66644 17.6 5.66644C14.8 5.66644 14 9.66644 14 9.66644ZM6 9.66644H22V13.6664H6V9.66644Z" stroke="white" stroke-width="2" stroke-linecap="round" stroke-linejoin="round"/>
<path d="M27.9996 38.9999L27.9998 17.6665L14.6665 26.9999L27.9996 38.9999Z" fill="#D9D9D9"/>
</svg>
