<svg width="31" height="31" viewBox="0 0 31 31" fill="none" xmlns="http://www.w3.org/2000/svg">
<path d="M30.7629 23.2705V30.4514H23.582V28.372H28.6828V23.2705H30.7629Z" fill="#A0A0A0"/>
<path d="M7.6973 0.422363V2.56548H2.44194V7.82084H0.298828V0.422363H7.6973Z" fill="#A0A0A0"/>
<path d="M30.7629 0.422363V7.82084H28.6828V2.56548H23.582V0.422363H30.7629Z" fill="#A0A0A0"/>
<path d="M7.6973 28.372V30.4514H0.298828V23.2705H2.44194V28.372H7.6973Z" fill="#A0A0A0"/>
<path d="M5.30371 5.42725V13.9137H13.7902V5.42725H5.30371ZM11.6429 11.7665H7.45099V7.57452H11.6429V11.7665Z" fill="#A0A0A0"/>
<path d="M17.0537 5.42725V13.9137H25.3226V5.42725H17.0537ZM23.2304 11.7665H19.1459V7.57452H23.2304V11.7665Z" fill="#A0A0A0"/>
<path d="M5.30371 16.9602V25.4467H13.7902V16.9602H5.30371ZM11.6429 23.2994H7.45099V19.1075H11.6429V23.2994Z" fill="#A0A0A0"/>
<path d="M23.2043 19.0339V16.9602H17.0544V19.1075H23.2305V23.2994H23.1906L23.2043 23.3277H25.3226V19.0339H23.2043ZM19.1458 21.2703H17.0537V25.4467H21.1992V23.2994H19.1458V21.2703Z" fill="#A0A0A0"/>
</svg>
